HIERARCHY
ROOT root
{
	OFFSET	0	13.1	24.9
	CHANNELS 6  Xposition Yposition Zposition Xrotation Yrotation Zrotation
	JOINT spine_1
	{
		OFFSET	0	9.99999	0
		CHANNELS 3  Xrotation Yrotation Zrotation
		JOINT spine_2
		{
			OFFSET	0	112	-10
			CHANNELS 3  Xrotation Yrotation Zrotation
			JOINT spine_3
			{
				OFFSET	0	206.5	19.3
				CHANNELS 3  Xrotation Yrotation Zrotation
				JOINT spine_4
				{
					OFFSET	0	110.4	14.6
					CHANNELS 3  Xrotation Yrotation Zrotation
					JOINT neck_1
					{
						OFFSET	0	71.8	-50.3
						CHANNELS 3  Xrotation Yrotation Zrotation
						JOINT neck_2
						{
							OFFSET	0	86.2	-25.8
							CHANNELS 3  Xrotation Yrotation Zrotation
							JOINT head_ee
							{
								OFFSET	0	179.8	-8.7
								CHANNELS 3  Xrotation Yrotation Zrotation
								End Site
								{
									OFFSET	1	0	0
								}
							}
						}
					}
					JOINT left_clavicle
					{
						OFFSET	-43.2	22.4	-70.8
						CHANNELS 3  Xrotation Yrotation Zrotation
						JOINT left_shoulder
						{
							OFFSET	-93.9	-5.79999	48.7
							CHANNELS 3  Xrotation Yrotation Zrotation
							JOINT left_elbow
							{
								OFFSET	-291.4	-30.8	15.2
								CHANNELS 3  Xrotation Yrotation Zrotation
								JOINT left_lowarm_twist
								{
									OFFSET	-110.7	-3.89999	13.6
									CHANNELS 3  Xrotation Yrotation Zrotation
									JOINT left_hand
									{
										OFFSET	-110.7	-3.89999	13.6
										CHANNELS 3  Xrotation Yrotation Zrotation
										JOINT left_ee
										{
											OFFSET	-80.8	-5.10001	12.1
											CHANNELS 3  Xrotation Yrotation Zrotation
											End Site
											{
												OFFSET	1	0	0
											}
										}
									}
								}
							}
						}
					}
					JOINT right_clavicle
					{
						OFFSET	43.2	22.4	-70.8
						CHANNELS 3  Xrotation Yrotation Zrotation
						JOINT right_shoulder
						{
							OFFSET	93.9	-5.79999	48.7
							CHANNELS 3  Xrotation Yrotation Zrotation
							JOINT right_elbow
							{
								OFFSET	291.4	-30.8	15.2
								CHANNELS 3  Xrotation Yrotation Zrotation
								JOINT right_lowarm_twist
								{
									OFFSET	110.7	-3.89999	13.6
									CHANNELS 3  Xrotation Yrotation Zrotation
									JOINT right_hand
									{
										OFFSET	110.7	-3.89999	13.6
										CHANNELS 3  Xrotation Yrotation Zrotation
										JOINT right_ee
										{
											OFFSET	80.8	-5.10001	12.1
											CHANNELS 3  Xrotation Yrotation Zrotation
											End Site
											{
												OFFSET	1	0	0
											}
										}
									}
								}
							}
						}
					}
				}
			}
		}
	}
	JOINT left_hip
	{
		OFFSET	-82.8	-127.5	0.300001
		CHANNELS 3  Xrotation Yrotation Zrotation
		JOINT left_knee
		{
			OFFSET	-28.2	-396.7	2.2
			CHANNELS 3  Xrotation Yrotation Zrotation
			JOINT left_ankle
			{
				OFFSET	-11.7	-411.3	35.4
				CHANNELS 3  Xrotation Yrotation Zrotation
				JOINT left_toes
				{
					OFFSET	0	-60	-88.6
					CHANNELS 3  Xrotation Yrotation Zrotation
					JOINT left_foot_ee
					{
						OFFSET	-22.5	-16.5	-42.2
						CHANNELS 3  Xrotation Yrotation Zrotation
						End Site
						{
							OFFSET	1	0	0
						}
					}
				}
			}
		}
	}
	JOINT right_hip
	{
		OFFSET	82.8	-127.5	0.300001
		CHANNELS 3  Xrotation Yrotation Zrotation
		JOINT right_knee
		{
			OFFSET	28.2	-396.7	2.2
			CHANNELS 3  Xrotation Yrotation Zrotation
			JOINT right_ankle
			{
				OFFSET	11.7	-411.3	35.4
				CHANNELS 3  Xrotation Yrotation Zrotation
				JOINT right_toes
				{
					OFFSET	0	-60	-88.6
					CHANNELS 3  Xrotation Yrotation Zrotation
					JOINT right_foot_ee
					{
						OFFSET	22.5	-16.5	-42.2
						CHANNELS 3  Xrotation Yrotation Zrotation
						End Site
						{
							OFFSET	1	0	0
						}
					}
				}
			}
		}
	}
}
MOTION
Frames: 16
Frame Time: 0.02
3444.09 724.198 -836.015 -5.6261 52.5061 7.25834 1.38785 -0.168764 -0.273584 1.38787 -0.151013 -0.283769 1.38864 -0.0954667 -0.306946 1.38854 -0.142745 -0.288017 0.584019 2.59752 0.815389 0.595384 3.93615 1.13984 -0.0 0.0 -0.0 2.01964 23.6692 5.49211 -54.0591 -76.3053 28.1179 0.458127 -12.7865 0.0513327 37.7928 -0.239466 -4.73545 1.89377 16.305 18.6275 -0.0 0.0 -0.0 12.4474 21.6585 -24.8359 -65.1677 63.6908 -21.9258 0.730083 19.8831 -0.127967 10.0001 -0.243558 1.25259 -6.03988 14.3377 53.8296 0.0 0.0 0.0 17.0593 -6.18452 -3.24281 -27.7597 0.123335 4.21678 29.156 24.5508 -3.99872 12.6801 -0.0 -0.0 -0.0 0.0 -0.0 12.4512 -15.7986 5.64478 -12.8294 -0.312148 -1.94001 19.1274 -27.2649 2.79082 38.7879 -0.0 -0.0 0.0 0.0 0.0 
3439.8 721.14 -839.228 -6.17421 53.4711 7.37025 1.47851 -0.162001 -0.211274 1.47852 -0.148229 -0.221155 1.4791 -0.10479 -0.244745 1.47905 -0.142128 -0.225124 0.50353 4.92884 2.87286 0.543947 6.38346 3.59767 -0.0 0.0 -0.0 2.32368 22.1245 5.8433 -62.9414 -75.6398 18.658 0.525433 -14.5897 0.0672619 37.5375 -0.227416 -4.70511 1.89399 15.3467 18.3243 -0.0 0.0 -0.0 12.3314 20.7477 -24.6412 -64.7658 64.0529 -23.922 0.71191 19.4257 -0.121855 9.32466 -0.234029 1.16684 -5.94184 15.2883 53.2359 0.0 0.0 0.0 17.4316 -8.49505 -2.57055 -28.8786 0.0853815 4.38431 31.2293 24.2438 -4.22924 13.2066 -0.0 -0.0 -0.0 0.0 -0.0 11.8687 -15.5169 5.92259 -12.5059 -0.309648 -1.89043 21.4942 -27.3923 3.10849 40.0115 -0.0 -0.0 0.0 0.0 0.0 
3424.58 719.84 -837.769 -6.36149 53.5484 8.51705 1.50575 -0.358798 -0.451142 1.50581 -0.329364 -0.473058 1.50858 -0.236514 -0.525666 1.50833 -0.316563 -0.481718 0.210154 5.72601 2.59942 0.261855 8.05689 3.39107 -0.0 0.0 -0.0 3.01516 22.7055 6.83663 -56.6879 -75.1016 20.592 0.441876 -12.3471 0.0477969 37.839 -0.24166 -4.74093 1.73494 14.9743 17.1616 -0.0 0.0 -0.0 12.0001 19.928 -23.9393 -67.1513 64.4993 -24.1963 0.69935 19.108 -0.11771 7.12694 -0.19604 0.888689 -5.88429 15.8839 52.9036 0.0 0.0 0.0 17.191 -6.00523 -3.17289 -29.3607 0.0680213 4.45626 35.267 24.3134 -4.67094 14.0401 -0.0 -0.0 -0.0 0.0 -0.0 11.8764 -17.2187 5.47872 -13.3537 -0.315605 -2.02038 24.0922 -28.1115 3.46169 39.5835 -0.0 -0.0 0.0 0.0 0.0 
3412.71 715.001 -828.047 -7.02322 54.8497 9.45566 1.55228 -0.331473 -0.546877 1.5524 -0.296003 -0.56686 1.55539 -0.186932 -0.611558 1.55498 -0.281168 -0.574363 -3.15684 6.23276 -0.139979 -3.10277 11.4483 0.769147 -0.0 0.0 -0.0 3.09736 23.4898 6.96713 -66.2213 -77.2136 10.8278 0.477648 -13.3123 0.0557404 37.5387 -0.22747 -4.70524 0.849325 13.4295 10.9058 -0.0 0.0 -0.0 11.7059 17.6471 -23.4081 -67.3906 64.9612 -26.0867 0.567973 15.7145 -0.0783814 5.47546 -0.160486 0.68073 -5.82819 17.2991 52.9535 0.0 0.0 0.0 17.2187 -5.41124 -2.68238 -29.7215 0.0546347 4.51 35.3764 21.79 -4.61826 13.2638 -0.0 -0.0 -0.0 0.0 -0.0 12.3053 -17.4888 5.9026 -13.3097 -0.315343 -2.01363 21.0188 -28.441 3.06705 38.484 -0.0 -0.0 0.0 0.0 0.0 
3404.96 715.854 -822.32 -7.49461 56.9177 10.2092 1.54785 -0.381044 -0.614879 1.54799 -0.341146 -0.637878 1.55187 -0.218235 -0.689667 1.55135 -0.324414 -0.646548 -4.85397 7.50807 -2.31753 -4.76887 15.5363 -1.08733 -0.0 0.0 -0.0 4.38113 23.485 8.74744 -75.8973 -75.4101 -0.496571 0.52837 -14.6677 0.0680035 37.4539 -0.223499 -4.69516 -0.0434144 12.5191 4.88178 -0.0 0.0 -0.0 11.4674 15.3407 -22.9727 -65.9899 64.883 -29.5225 0.43983 12.2917 -0.0473604 6.39843 -0.181095 0.796829 -5.99425 16.2361 54.2583 0.0 0.0 0.0 17.8645 1.64605 -3.8266 -29.6067 0.0589297 4.49291 34.2187 17.2432 -4.4111 10.372 -0.0 -0.0 -0.0 0.0 -0.0 13.9489 -17.4472 5.3191 -13.9536 -0.318657 -2.11237 11.2761 -29.462 1.71658 38.1154 -0.0 -0.0 0.0 0.0 0.0 
3400.62 715.985 -818.688 -8.72955 59.0998 11.3669 1.74633 -0.416341 -0.825064 1.74664 -0.362999 -0.849882 1.75211 -0.203953 -0.901368 1.75114 -0.343742 -0.857851 -6.20339 9.18954 -3.11659 -6.12334 19.2853 -1.38909 -0.0 0.0 -0.0 5.11779 23.7778 9.7651 -81.8214 -75.6041 -7.03717 0.531461 -14.7497 0.0687883 36.8243 -0.194474 -4.62008 -0.730803 10.7664 -0.21014 -0.0 0.0 -0.0 11.2154 13.4831 -22.4641 -64.6198 65.0197 -32.2585 0.363928 10.2197 -0.0325428 6.62097 -0.185784 0.82487 -6.00506 16.2011 54.3603 0.0 0.0 0.0 18.494 4.99887 -4.53466 -29.2619 0.0716281 4.44152 31.4308 12.8598 -4.0682 8.84223 -0.0 -0.0 -0.0 0.0 -0.0 14.2565 -16.8701 5.95888 -14.3576 -0.32017 -2.17434 8.57113 -29.3863 1.31481 39.1685 -0.0 -0.0 0.0 0.0 0.0 
3385.88 717.774 -812.721 -11.0701 60.3313 13.7295 2.08718 -0.534807 -1.03352 2.08765 -0.467962 -1.06545 2.09644 -0.27519 -1.13068 2.09493 -0.450296 -1.07303 -6.11035 10.1247 -4.4992 -5.97107 22.0192 -2.63185 -0.0 0.0 -0.0 5.66018 21.455 10.6481 -81.4948 -75.2472 -8.36395 0.560078 -15.5066 0.076257 37.1175 -0.207886 -4.65508 -1.39143 11.6907 -4.00164 -0.0 0.0 -0.0 10.1147 11.606 -20.0575 -66.0816 65.1025 -31.8893 0.389829 10.93 -0.0372961 6.5524 -0.184351 0.816228 -5.98169 16.2995 54.1505 0.0 0.0 0.0 19.1686 8.02481 -4.34957 -28.8352 0.0869163 4.37781 28.8667 11.1027 -3.77912 8.3488 -0.0 -0.0 -0.0 0.0 -0.0 14.6042 -14.1166 6.14792 -15.2972 -0.322 -2.31848 6.38263 -29.8299 0.988101 39.4717 -0.0 -0.0 0.0 0.0 0.0 
3373.03 718.485 -814.373 -11.9329 61.4734 14.4152 2.29506 -0.561095 -1.16267 2.29568 -0.485979 -1.19601 2.30587 -0.274809 -1.26138 2.30396 -0.470558 -1.20216 -4.78366 10.8644 -4.70631 -4.53924 23.4861 -2.99402 -0.0 0.0 -0.0 6.03279 20.501 11.2528 -78.3643 -74.6451 -5.38674 0.566908 -15.6865 0.0780934 37.8874 -0.243967 -4.74668 -1.89618 11.8459 -7.14239 -0.0 0.0 -0.0 9.11849 9.88616 -17.9187 -64.4147 65.975 -34.598 0.44814 12.5166 -0.0491453 7.36359 -0.200643 0.918568 -5.95541 15.7354 53.5978 0.0 0.0 0.0 18.7113 10.7049 -4.68842 -28.646 0.0935405 4.34954 28.111 8.22475 -3.68478 7.73459 -0.0 -0.0 -0.0 0.0 -0.0 15.2584 -13.359 6.11021 -17.179 -0.318555 -2.60717 5.16597 -29.592 0.800995 40.2764 -0.0 -0.0 0.0 0.0 0.0 
3373.52 720.755 -813.932 -12.3307 61.0018 14.4254 2.34972 -0.242208 -1.2002 2.3505 -0.165351 -1.21318 2.35393 0.043096 -1.22363 2.35187 -0.15068 -1.21509 -8.17337 12.2806 -2.14791 -8.22761 24.4562 0.628377 -0.0 0.0 -0.0 6.77697 18.75 12.5066 -73.5085 -74.5188 -2.19706 0.50045 -13.9236 0.0611091 37.5851 -0.229653 -4.71077 -2.43437 11.0961 -10.9768 -0.0 0.0 -0.0 8.73391 9.54385 -17.0971 -64.52 66.0786 -36.5915 0.437783 12.2362 -0.0469254 7.62372 -0.20556 0.951433 -6.02967 16.1248 54.5955 0.0 0.0 0.0 18.4928 13.3168 -4.74322 -26.7546 0.154627 4.06571 24.506 7.65892 -3.27371 7.05305 -0.0 -0.0 -0.0 0.0 -0.0 16.1458 -10.835 5.62838 -16.7482 -0.32018 -2.54109 1.43488 -29.0523 0.223679 40.1765 -0.0 -0.0 0.0 0.0 0.0 
3365.03 725.057 -818.709 -12.8493 62.0782 15.0772 2.40433 -0.190191 -1.26975 2.40522 -0.109015 -1.27928 2.40753 0.108658 -1.27931 2.40526 -0.0947311 -1.28041 -9.58189 12.827 -2.72432 -9.74949 25.9624 0.529047 -0.0 0.0 -0.0 7.0648 17.2618 13.0715 -75.0611 -72.1226 -3.23049 0.64562 -17.7355 0.10073 37.6616 -0.233258 -4.71987 -2.82737 10.5542 -13.828 -0.0 0.0 -0.0 8.2779 8.00393 -16.1546 -63.0885 66.6927 -39.2867 0.466286 13.0065 -0.0531538 7.05445 -0.194605 0.87954 -5.99305 13.0001 52.626 0.0 0.0 0.0 18.2179 15.9816 -5.91482 -25.5685 0.188138 3.88677 19.8113 6.23288 -2.70761 6.45666 -0.0 -0.0 -0.0 0.0 -0.0 16.7573 -5.22804 4.40219 -18.921 -0.306917 -2.87419 3.49627 -26.3582 0.533473 40.2498 -0.0 -0.0 0.0 0.0 0.0 
3349.44 725.863 -826.16 -13.2991 63.5816 16.0197 2.56912 -0.256617 -1.36243 2.57014 -0.16941 -1.37599 2.57404 0.0614303 -1.38502 2.5714 -0.158057 -1.37734 -9.25438 12.8978 -0.588521 -9.40587 24.6261 2.55604 -0.0 0.0 -0.0 7.30879 16.6102 13.5161 -74.3891 -71.3489 -2.46893 0.672237 -18.4182 0.108989 36.8209 -0.194319 -4.61967 -3.56045 10.706 -18.6398 -0.0 0.0 -0.0 7.97854 6.86943 -15.5424 -61.0704 66.1383 -43.8499 0.466943 13.0242 -0.0533016 9.01499 -0.229322 1.12756 -5.92534 11.1815 50.9205 0.0 0.0 0.0 16.0294 17.6328 -6.30726 -23.5675 0.236248 3.58348 22.8063 2.79536 -3.08019 6.00615 -0.0 -0.0 -0.0 0.0 -0.0 21.8247 -0.634873 1.92555 -25.7401 -0.18352 -3.91269 8.91173 -29.2099 1.36407 40.2397 -0.0 -0.0 0.0 0.0 0.0 
3342.64 725.259 -832.8 -14.2299 63.9991 17.5583 2.73918 -0.316356 -1.52574 2.74044 -0.21864 -1.54277 2.74606 0.0358887 -1.55777 2.74274 -0.210553 -1.5439 -10.2296 13.4553 0.626016 -10.4594 24.9554 4.10419 -0.0 0.0 -0.0 7.8757 15.5269 14.5424 -75.3334 -69.3455 -4.68807 0.745363 -20.2657 0.133212 36.1871 -0.165938 -4.54377 -4.08379 10.898 -22.1128 -0.0 0.0 -0.0 7.76039 8.6946 -15.0417 -56.7414 66.3323 -50.4399 0.485537 13.5241 -0.0575712 11.0659 -0.256535 1.38811 -5.81951 10.1439 49.2491 0.0 0.0 0.0 15.6724 18.4146 -7.58553 -21.9494 0.267386 3.33713 19.5991 2.32731 -2.69039 4.61127 -0.0 -0.0 -0.0 0.0 -0.0 23.5682 3.00381 0.797824 -31.1893 0.00332075 -4.7278 10.6272 -26.4872 1.59056 40.1404 -0.0 -0.0 0.0 0.0 0.0 
3332.41 723.695 -829.128 -12.3828 63.0788 16.1112 2.82076 -0.191966 -1.6591 2.82229 -0.0860196 -1.66795 2.82439 0.184937 -1.65989 2.82056 -0.0794953 -1.66827 -10.5536 11.7577 -0.973535 -10.7569 22.8361 2.16133 -0.0 0.0 -0.0 8.95448 13.8202 16.5519 -71.4415 -67.9073 -1.1294 0.731246 -19.9123 0.128363 34.0827 -0.077773 -4.28962 -4.73096 11.847 -26.0667 -0.0 0.0 -0.0 7.8239 10.4166 -15.1231 -55.9102 65.4664 -52.365 0.455279 12.7096 -0.0507042 14.3803 -0.280753 1.8107 -5.78268 5.57895 46.1746 0.0 0.0 0.0 13.694 20.8023 -7.11773 -21.2388 0.278859 3.22869 24.6853 -1.64853 -3.32915 5.491 -0.0 -0.0 -0.0 0.0 -0.0 26.6818 6.93553 -0.794605 -34.1683 0.138024 -5.165 4.53766 -26.4214 0.690805 38.912 -0.0 -0.0 0.0 0.0 0.0 
3327.96 724.586 -832.781 -10.4738 62.5885 14.1883 2.63003 -0.101088 -1.68078 2.63161 0.00605415 -1.6838 2.63107 0.284006 -1.6597 2.62723 0.0183621 -1.68371 -10.8974 12.532 0.524282 -11.1375 23.3421 3.89491 -0.0 0.0 -0.0 9.62333 12.5684 17.8759 -69.4456 -66.5807 0.35625 0.720368 -19.6389 0.124683 33.5659 -0.0575551 -4.22673 -5.12529 12.4893 -28.4777 -0.0 0.0 -0.0 8.04554 11.7343 -15.5498 -53.5513 65.4368 -55.6195 0.436951 12.2136 -0.0467493 16.4905 -0.283424 2.08019 -5.64749 4.67534 44.3218 0.0 0.0 0.0 12.3384 22.3191 -7.10518 -20.6629 0.287169 3.14072 23.2222 -2.50917 -3.16375 4.43214 -0.0 -0.0 -0.0 0.0 -0.0 29.9505 9.94687 -1.95651 -34.4465 0.151763 -5.20546 4.53794 -25.5714 0.687568 38.9303 -0.0 -0.0 0.0 0.0 0.0 
3326.06 729.755 -828.849 -10.082 60.1651 14.317 2.32649 -0.0246111 -1.68235 2.32806 0.0824757 -1.68051 2.32538 0.367632 -1.64189 2.32163 0.103751 -1.67933 -11.355 11.96 0.628191 -11.5966 22.232 3.92433 -0.0 0.0 -0.0 9.94342 11.6594 18.5632 -67.8883 -65.517 1.26513 0.707548 -19.3155 0.120408 32.2484 -0.00859547 -4.06562 -5.55753 12.4579 -31.714 -0.0 0.0 -0.0 8.90576 12.5983 -17.3799 -55.5888 64.2098 -52.3756 0.490961 13.6696 -0.0588462 18.4787 -0.276859 2.33404 -5.5525 1.33856 41.3341 0.0 0.0 0.0 12.2257 23.3191 -7.45195 -19.687 0.299232 2.99146 24.698 -3.42259 -3.34734 4.12431 -0.0 -0.0 -0.0 0.0 -0.0 32.0642 11.5538 -3.29729 -32.1526 0.0443852 -4.86992 -0.990664 -25.2106 -0.151755 36.9079 -0.0 -0.0 0.0 0.0 0.0 
3321.22 731.721 -827.11 -10.1713 58.2579 14.8077 2.06752 0.0258545 -1.64642 2.06902 0.130553 -1.64144 2.06511 0.415606 -1.59332 2.0616 0.158791 -1.63895 -11.1087 11.6583 0.674628 -11.3226 21.6083 3.83188 -0.0 0.0 -0.0 10.1043 11.1521 18.9194 -66.2829 -64.5877 1.45041 0.702469 -19.187 0.118734 30.9086 0.0373801 -3.90068 -5.97496 12.4396 -34.9574 -0.0 0.0 -0.0 9.47137 13.5074 -18.5844 -57.285 63.0693 -50.2033 0.535177 14.8483 -0.0697375 19.9882 -0.265994 2.52654 -5.47878 -1.04245 39.1266 0.0 0.0 0.0 12.3399 23.9977 -7.69887 -19.2673 0.303637 2.92722 25.5403 -4.32253 -3.45539 3.70538 -0.0 -0.0 -0.0 0.0 -0.0 33.519 13.0284 -4.26361 -29.6898 -0.0558231 -4.50529 -5.2978 -24.888 -0.816789 35.4149 -0.0 -0.0 0.0 0.0 0.0 
